<?xml version="1.0" encoding="iso-8859-1"?>
<!-- Generator: Adobe Illustrator 22.1.0, SVG Export Plug-In . SVG Version: 6.00 Build 0)  -->
<svg version="1.1" id="&#x421;&#x43B;&#x43E;&#x439;_1"
	 xmlns="http://www.w3.org/2000/svg" xmlns:xlink="http://www.w3.org/1999/xlink" x="0px" y="0px" viewBox="0 0 119.5 106.599"
	 style="enable-background:new 0 0 119.5 106.599;" xml:space="preserve">
<g>
	<path style="fill:#C7C8BD;" d="M0,42.009c0.679-1.592,0.527-3.321,0.787-4.98c1.21-7.724,3.625-15.041,7.175-21.995
		c2.162-4.235,8.872-5.805,12.641-2.955c2.186,1.653,3.805,3.82,5.342,6.041c4.441,6.414,8.577,13.039,13.564,19.071
		c9.248,11.185,20.44,19.866,33.46,26.227c3.985,1.947,7.817,4.134,10.894,7.403c5.238,5.566,6.054,11.938,2.389,18.651
		c-3.162,5.791-7.929,10.02-13.256,13.764c-2.496,1.754-5.222,2.694-8.112,3.363c-1.278,0-2.556,0-3.834,0
		c-0.056-0.23-0.229-0.275-0.434-0.297c-5.027-0.537-9.771-2.084-14.366-4.114c-11.534-5.097-21.661-12.27-30.742-20.965
		C7.661,73.707,2.333,64.819,0.696,53.919C0.498,52.601,0.649,51.212,0,49.972c0-0.295,0-0.59,0-0.885
		c0.397-2.065,0.385-4.129,0-6.194C0,42.599,0,42.304,0,42.009z"/>
	<path style="fill:none;stroke:#3D6D3F;stroke-miterlimit:10;" d="M99.442,48.676v24.512c0,6.6-5.4,12-12,12H42.605
		c-6.6,0-12-5.4-12-12V28.351c0-6.6,5.4-12,12-12h23.824"/>
	<line style="fill:none;stroke:#3D6D3F;stroke-miterlimit:10;" x1="23.907" y1="42.955" x2="54.419" y2="42.955"/>
	<line style="fill:none;stroke:#3D6D3F;stroke-miterlimit:10;" x1="9.768" y1="55.048" x2="50.884" y2="55.048"/>
	<line style="fill:none;stroke:#3D6D3F;stroke-miterlimit:10;" x1="47.163" y1="72.165" x2="75.442" y2="72.165"/>
	<polygon style="fill:none;stroke:#3D6D3F;stroke-miterlimit:10;" points="63.163,57.839 63.163,72.165 75.442,72.165 
		118.791,29.374 105.582,16.165 	"/>
	<path style="fill:#365EB0;" d="M50.135,15.58c0.34-2.945,1.134-5.744,2.866-8.188c3.667-5.174,8.693-7.78,15.03-7.345
		c5.924,0.406,10.42,3.36,13.046,8.712c5.011,10.215-1.958,22.202-13.265,23.467c-2.817,0.315-5.527-0.096-8.139-1.192
		c-0.164-0.069-0.345-0.098-0.518-0.145C53.009,27.637,49.983,22.545,50.135,15.58z"/>
</g>
<g>
</g>
<g>
</g>
<g>
</g>
<g>
</g>
<g>
</g>
</svg>
