<?xml version="1.0" encoding="iso-8859-1"?>
<!-- Generator: Adobe Illustrator 22.1.0, SVG Export Plug-In . SVG Version: 6.00 Build 0)  -->
<svg version="1.1" id="&#x421;&#x43B;&#x43E;&#x439;_1"
	 xmlns="http://www.w3.org/2000/svg" xmlns:xlink="http://www.w3.org/1999/xlink" x="0px" y="0px" viewBox="0 0 544.688 611.053"
	 style="enable-background:new 0 0 544.688 611.053;" xml:space="preserve">
<g>
	<path style="fill:#F3F3F3;" d="M381.904,531.301c51.401,5.619,139.232-11.196,156.554-80.3l0.294-0.872
		c8.865-20.951,0.265-48.623-9.693-80.665c-11.441-36.818-24.409-78.548-17.412-125.83l0.105-0.539
		c14.422-59.126,7.035-118.741-20.265-163.559C468.35,41.555,431.88,15.584,386.001,4.419
		c-98.853-14.457-122.16,40.655-178.433,173.638c-44.945,106.223-51.038,186.55-18.628,245.572
		C219.15,478.641,284.069,514.866,381.904,531.301z"/>
	<g>
		<defs>
			<path id="SVGID_1_" d="M383.957,531.301c51.401,5.619,139.232-11.196,156.554-80.3l0.294-0.872
				c8.865-20.951,0.265-48.623-9.693-80.665c-11.441-36.818-24.409-78.548-17.412-125.83l0.105-0.539
				c14.422-59.126,7.035-118.741-20.265-163.559c-23.136-37.982-59.606-63.952-105.484-75.117
				c-98.853-14.457-122.16,40.655-178.433,173.638c-44.945,106.223-51.038,186.55-18.628,245.572
				C221.203,478.641,286.122,514.866,383.957,531.301z"/>
		</defs>
		<clipPath id="SVGID_2_">
			<use xlink:href="#SVGID_1_"  style="overflow:visible;"/>
		</clipPath>
		<g style="clip-path:url(#SVGID_2_);">
			
				<line style="fill:none;stroke:#111D1E;stroke-width:1.666;stroke-miterlimit:10;" x1="291.188" y1="-4.571" x2="291.188" y2="537.761"/>
			
				<line style="fill:none;stroke:#111D1E;stroke-width:1.666;stroke-miterlimit:10;" x1="426.233" y1="-4.556" x2="422.427" y2="537.746"/>
			
				<line style="fill:none;stroke:#111D1E;stroke-width:1.666;stroke-miterlimit:10;" x1="569.534" y1="-4.569" x2="562.354" y2="537.758"/>
			
				<line style="fill:none;stroke:#111D1E;stroke-width:1.666;stroke-miterlimit:10;" x1="707.308" y1="-4.568" x2="700.368" y2="537.757"/>
			
				<line style="fill:none;stroke:#111D1E;stroke-width:1.666;stroke-miterlimit:10;" x1="833.52" y1="-4.571" x2="833.52" y2="537.761"/>
			
				<line style="fill:none;stroke:#111D1E;stroke-width:1.666;stroke-miterlimit:10;" x1="833.52" y1="-4.571" x2="291.188" y2="-4.571"/>
			
				<line style="fill:none;stroke:#111D1E;stroke-width:1.666;stroke-miterlimit:10;" x1="833.505" y1="130.473" x2="291.203" y2="139.729"/>
			
				<line style="fill:none;stroke:#111D1E;stroke-width:1.666;stroke-miterlimit:10;" x1="833.517" y1="273.774" x2="291.191" y2="280.424"/>
			
				<line style="fill:none;stroke:#111D1E;stroke-width:1.666;stroke-miterlimit:10;" x1="833.517" y1="411.548" x2="291.191" y2="404.608"/>
			
				<line style="fill:none;stroke:#111D1E;stroke-width:1.666;stroke-miterlimit:10;" x1="833.52" y1="537.761" x2="291.188" y2="537.761"/>
		</g>
	</g>
	<path style="fill:#FF8300;" d="M206.138,206.072c-10.133,17.923-20.064,40.288-30.354,68.355l-0.451,1.232l-0.931,0.929
		c-1.027,1.028-102.771,103.634-103.611,173.933c-0.8,66.78,24.976,98.149,110.32,134.262
		c40.219,17.017,97.853,27.296,146.881,26.189c54.106-1.224,90.905-15.564,100.967-39.342
		c22.243-52.572,22.243-52.572-13.271-116.493l-6.011-10.834c-40.827-73.758-38.968-120.934-38.634-125.937
		c-0.099-4.52,0.25-43.233,35.865-127.405c9.658-22.827,10.124-41.496,1.384-55.489c-16.557-26.513-61.063-29.213-61.51-29.238
		C335.557,105.404,276.527,106.373,206.138,206.072z"/>
	<path style="fill:#3D6D3F;" d="M175.417,52.832c-26.07,33.635-40.538,61.011-66.782,84.018
		C55.716,183.24,0.255,218.564,0.001,293.913c-0.276,81.818,113.167,66.294,220.208,173.207
		c27.673,27.672,72.343,34.567,90.753,33.374c0,0,41.813-2.077,63.197-31.064c14.041-19.038,16.676-45.7,7.829-79.247
		c-19.785-75.018-9.341-101.628,5.116-138.457c8.103-20.647,17.287-44.048,24.031-81.649
		c18.273-101.857-68.81-153.246-69.692-153.754C337.715,14.028,253.043-36.565,175.417,52.832z"/>
	<path style="fill:#DCCDBD;" d="M384.884,272.495c45.792-108.221,39.727-143.31-12.603-165.452
		c-35.521-15.03-137.636,18.086-183.428,126.308c-47.814,113.001-22.83,250.468,111.431,268.9
		c43.425,4.795,75.903-26.305,85.7-42.351C415.409,412.307,351.971,350.279,384.884,272.495z"/>
	<path d="M360.792,441.518c-4.107,52.706,34.993,109.278,68.189,130.673c5.476-13.005,5.249-8.293,11.061-28.204L360.792,441.518z"
		/>
	<path style="fill:#365EB0;" d="M378.573,399.298c0,0,27.915-31.457,31.515-55.605c5.623-40.509,51.444-54.759,80.714-37.303
		c53.702,41.902,87.081,165.088,2.116,226.139C414.59,590.534,321.113,457.443,378.573,399.298z"/>
</g>
<g>
</g>
<g>
</g>
<g>
</g>
<g>
</g>
<g>
</g>
</svg>
