<?xml version="1.0" encoding="iso-8859-1"?>
<!-- Generator: Adobe Illustrator 22.1.0, SVG Export Plug-In . SVG Version: 6.00 Build 0)  -->
<svg version="1.1" id="&#x421;&#x43B;&#x43E;&#x439;_1"
	 xmlns="http://www.w3.org/2000/svg" xmlns:xlink="http://www.w3.org/1999/xlink" x="0px" y="0px" viewBox="0 0 126.889 112.979"
	 style="enable-background:new 0 0 126.889 112.979;" xml:space="preserve">
<path style="fill:#FFFFFF;" d="M62.747,107.57c-20.819-17.221-19.403,1.094-21.451-18.44S28.49,56.439,51.451,45.332
	c18.362-9.807,30.612-20.821,38.228-5.077s27.469,21.405,27.469,21.405s18.775,2.475,4.197,27.802
	C117.278,95.961,83.566,124.791,62.747,107.57z"/>
<g>
	<path style="fill:#3D6D3F;" d="M84,84.665H16c-6.893,0-12.5-5.607-12.5-12.5v-44c0-6.893,5.607-12.5,12.5-12.5h68
		c6.893,0,12.5,5.607,12.5,12.5v44C96.5,79.057,90.893,84.665,84,84.665z M16,16.665c-6.341,0-11.5,5.159-11.5,11.5v44
		c0,6.341,5.159,11.5,11.5,11.5h68c6.341,0,11.5-5.159,11.5-11.5v-44c0-6.341-5.159-11.5-11.5-11.5H16z"/>
	<path style="fill:#3D6D3F;" d="M88,84.665H12c-6.6,0-12-5.4-12-12h100C100,79.265,94.6,84.665,88,84.665z"/>
</g>
<path style="fill:#365EB0;" d="M12.214,15.58c0.34-2.945,1.134-5.744,2.866-8.188c3.667-5.174,8.693-7.78,15.03-7.345
	c5.924,0.406,10.42,3.36,13.046,8.712c5.011,10.215-1.958,22.202-13.265,23.467c-2.817,0.315-5.527-0.096-8.139-1.192
	c-0.164-0.069-0.345-0.098-0.518-0.145C15.089,27.637,12.062,22.545,12.214,15.58z"/>
<g>
</g>
<g>
</g>
<g>
</g>
<g>
</g>
<g>
</g>
</svg>
