<?xml version="1.0" encoding="iso-8859-1"?>
<!-- Generator: Adobe Illustrator 22.1.0, SVG Export Plug-In . SVG Version: 6.00 Build 0)  -->
<svg version="1.1" id="&#x421;&#x43B;&#x43E;&#x439;_1"
	 xmlns="http://www.w3.org/2000/svg" xmlns:xlink="http://www.w3.org/1999/xlink" x="0px" y="0px" viewBox="0 0 121.369 105.152"
	 style="enable-background:new 0 0 121.369 105.152;" xml:space="preserve">
<path style="fill:#D9CABA;" d="M0,53.19c-0.05,14.807,20.48,11.997,39.851,31.346c5.008,5.008,13.092,6.256,16.424,6.04
	c0,0,7.567-0.376,11.437-5.622c2.541-3.445,3.018-8.27,1.417-14.341c-3.581-13.576-1.691-18.392,0.926-25.057
	c1.466-3.736,3.128-7.971,4.349-14.776C77.71,12.346,61.951,3.046,61.791,2.954c-0.675-0.416-15.998-9.571-30.046,6.607
	c-4.718,6.087-7.336,11.041-12.086,15.205C10.083,33.161,0.046,39.554,0,53.19"/>
<g>
	<path style="fill:none;stroke:#3D6D3F;stroke-miterlimit:10;" d="M100.564,93.124h-68c-6.6,0-12-5.4-12-12v-44c0-6.6,5.4-12,12-12
		h68c6.6,0,12,5.4,12,12v44C112.564,87.724,107.164,93.124,100.564,93.124z"/>
	<path style="fill:#3D6D3F;" d="M46.129,41.792l-9.916-5.725c-2.785-1.608-6.266,0.402-6.266,3.618v11.45
		c0,3.216,3.481,5.225,6.266,3.618l9.916-5.725C48.914,47.419,48.914,43.4,46.129,41.792z"/>
	<polyline style="fill:none;stroke:#3D6D3F;stroke-linejoin:round;stroke-miterlimit:10;" points="34.064,104.799 66.064,72.799 
		98.064,104.799 	"/>
</g>
<path style="fill:#FF8300;" d="M91.417,79.642c0,0-7.847-0.557-7.219,3.022c0.627,3.579,2.92,5.636-1.092,8.798
	c-4.012,3.163,4.57,9.035,13.431,7.482S113.411,93,114.414,83.691c1.372-8.86,7.468-8.913,6.921-12.038
	c-0.252-2.154-3.999-4.631-8.114-4.791C102.118,66.194,100.188,78.456,91.417,79.642z"/>
<g>
</g>
<g>
</g>
<g>
</g>
<g>
</g>
<g>
</g>
</svg>
