<?xml version="1.0" encoding="iso-8859-1"?>
<!-- Generator: Adobe Illustrator 22.1.0, SVG Export Plug-In . SVG Version: 6.00 Build 0)  -->
<svg version="1.1" id="&#x421;&#x43B;&#x43E;&#x439;_1"
	 xmlns="http://www.w3.org/2000/svg" xmlns:xlink="http://www.w3.org/1999/xlink" x="0px" y="0px" viewBox="0 0 118.791 103.195"
	 style="enable-background:new 0 0 118.791 103.195;" xml:space="preserve">
<path style="fill:#C7CACC;" d="M0,38.605c0.679-1.592,0.527-3.321,0.787-4.98C1.996,25.9,4.412,18.583,7.962,11.63
	c2.162-4.235,8.872-5.805,12.641-2.955c2.186,1.653,3.805,3.82,5.342,6.041c4.441,6.414,8.577,13.039,13.564,19.071
	c9.248,11.185,20.44,19.866,33.46,26.227c3.985,1.947,7.817,4.134,10.894,7.403c5.238,5.566,6.054,11.938,2.389,18.651
	c-3.162,5.791-7.929,10.02-13.256,13.764c-2.496,1.754-5.222,2.694-8.112,3.363c-1.278,0-2.556,0-3.834,0
	c-0.056-0.23-0.229-0.275-0.434-0.297c-5.027-0.537-9.771-2.084-14.366-4.114c-11.534-5.097-21.661-12.27-30.742-20.965
	C7.661,70.304,2.333,61.415,0.696,50.516C0.498,49.197,0.649,47.809,0,46.568c0-0.295,0-0.59,0-0.885
	c0.397-2.065,0.385-4.129,0-6.194C0,39.195,0,38.9,0,38.605z"/>
<g>
	<path style="fill:#3D6D3F;" d="M116.276,57.213h-1c0-26.48-21.543-48.023-48.023-48.023S19.229,30.733,19.229,57.213h-1
		c0-27.032,21.992-49.023,49.023-49.023S116.276,30.182,116.276,57.213z"/>
	<path style="fill:#3D6D3F;" d="M103.753,57.213h-1c0-19.575-15.925-35.5-35.5-35.5s-35.5,15.925-35.5,35.5h-1
		c0-20.126,16.374-36.5,36.5-36.5S103.753,37.087,103.753,57.213z"/>
	<path style="fill:#3D6D3F;" d="M90.753,57.213h-1c0-12.407-10.094-22.5-22.5-22.5s-22.5,10.093-22.5,22.5h-1
		c0-12.958,10.542-23.5,23.5-23.5S90.753,44.255,90.753,57.213z"/>
	<path style="fill:#3D6D3F;" d="M58.752,57.213c0-4.694,3.806-8.5,8.5-8.5s8.5,3.806,8.5,8.5H58.752z"/>
	<path style="fill:#3D6D3F;" d="M91.337,74.213h-48c-6.6,0-12-5.4-12-12h72C103.337,68.813,97.937,74.213,91.337,74.213z"/>
</g>
<path style="fill:#FF8300;" d="M90.871,16.847c0,0,4.692-5.287,5.297-9.346c0.945-6.809,8.647-9.204,13.566-6.27
	c9.026,7.043,14.636,27.747,0.356,38.008C96.924,48.989,81.213,26.62,90.871,16.847z"/>
<g>
</g>
<g>
</g>
<g>
</g>
<g>
</g>
<g>
</g>
</svg>
