<?xml version="1.0" encoding="iso-8859-1"?>
<!-- Generator: Adobe Illustrator 22.1.0, SVG Export Plug-In . SVG Version: 6.00 Build 0)  -->
<svg version="1.1" id="&#x421;&#x43B;&#x43E;&#x439;_1"
	 xmlns="http://www.w3.org/2000/svg" xmlns:xlink="http://www.w3.org/1999/xlink" x="0px" y="0px" viewBox="0 0 119.139 115.568"
	 style="enable-background:new 0 0 119.139 115.568;" xml:space="preserve">
<path style="fill:#C7C8BD;" d="M19.198,110.874c0,0,29.145,15.288,46.992-9.319S96.87,89.321,94.226,75.717
	s-17.088-32.432-41.119-36.13C29.075,35.89,3.382,73.34,3.382,73.34S-10.889,92.471,19.198,110.874z"/>
<path style="fill:none;stroke:#3D6D3F;stroke-miterlimit:10;" d="M93.624,79.1h-68c-6.6,0-12-5.4-12-12v-44c0-6.6,5.4-12,12-12h68
	c6.6,0,12,5.4,12,12v44C105.624,73.7,100.224,79.1,93.624,79.1z"/>
<line style="fill:none;stroke:#3D6D3F;stroke-miterlimit:10;" x1="59.624" y1="59.1" x2="59.624" y2="93.1"/>
<line style="fill:none;stroke:#3D6D3F;stroke-miterlimit:10;" x1="35.124" y1="93.1" x2="84.124" y2="93.1"/>
<path style="fill:#3D6D3F;" d="M93.671,79.254h-68c-6.6,0-12-5.4-12-12h92C105.671,73.854,100.271,79.254,93.671,79.254z"/>
<path style="fill:#E1AB29;" d="M112.048,15.043c10.781-3.54,8.767,14.45-2.646,18.143c-8.235,4.121-33.642,6.467-26.698-31.067
	C85.404-8.011,91.038,21.846,112.048,15.043z"/>
<g>
</g>
<g>
</g>
<g>
</g>
<g>
</g>
<g>
</g>
</svg>
