<?xml version="1.0" encoding="iso-8859-1"?>
<!-- Generator: Adobe Illustrator 22.1.0, SVG Export Plug-In . SVG Version: 6.00 Build 0)  -->
<svg version="1.1" id="&#x421;&#x43B;&#x43E;&#x439;_1"
	 xmlns="http://www.w3.org/2000/svg" xmlns:xlink="http://www.w3.org/1999/xlink" x="0px" y="0px" viewBox="0 0 366.071 384.068"
	 style="enable-background:new 0 0 366.071 384.068;" xml:space="preserve">
<g>
	<path style="fill:#C7C8BD;" d="M239.196,262.699c25.52,2.79,69.125-5.559,77.725-39.867l0.146-0.433
		c4.401-10.402,0.131-24.14-4.813-40.048c-5.68-18.279-12.119-38.997-8.645-62.472l0.052-0.268
		c7.16-29.355,3.493-58.952-10.061-81.203c-11.486-18.857-29.593-31.751-52.37-37.294c-49.078-7.178-60.65,20.184-88.588,86.208
		c-22.314,52.738-25.339,92.618-9.248,121.921C158.392,236.555,190.623,254.54,239.196,262.699z"/>
	<g>
		<defs>
			<path id="SVGID_1_" d="M240.215,262.699c25.52,2.79,69.126-5.559,77.725-39.867l0.146-0.433
				c4.401-10.402,0.131-24.14-4.813-40.048c-5.68-18.279-12.119-38.997-8.645-62.472l0.052-0.268
				c7.16-29.355,3.493-58.952-10.061-81.203c-11.486-18.857-29.593-31.751-52.37-37.294c-49.078-7.178-60.65,20.184-88.588,86.208
				c-22.314,52.738-25.339,92.618-9.248,121.921C159.411,236.555,191.642,254.54,240.215,262.699z"/>
		</defs>
		<clipPath id="SVGID_2_">
			<use xlink:href="#SVGID_1_"  style="overflow:visible;"/>
		</clipPath>
		<g style="clip-path:url(#SVGID_2_);">
			
				<line style="fill:none;stroke:#FFFFFF;stroke-width:1.666;stroke-miterlimit:10;" x1="91.201" y1="-3.35" x2="91.201" y2="265.906"/>
			
				<line style="fill:none;stroke:#FFFFFF;stroke-width:1.666;stroke-miterlimit:10;" x1="158.247" y1="-3.342" x2="156.358" y2="265.899"/>
			
				<line style="fill:none;stroke:#FFFFFF;stroke-width:1.666;stroke-miterlimit:10;" x1="229.393" y1="-3.348" x2="225.829" y2="265.905"/>
			
				<line style="fill:none;stroke:#FFFFFF;stroke-width:1.666;stroke-miterlimit:10;" x1="297.795" y1="-3.348" x2="294.349" y2="265.904"/>
			
				<line style="fill:none;stroke:#FFFFFF;stroke-width:1.666;stroke-miterlimit:10;" x1="360.456" y1="-3.35" x2="360.456" y2="265.906"/>
			
				<line style="fill:none;stroke:#FFFFFF;stroke-width:1.666;stroke-miterlimit:10;" x1="360.456" y1="-3.35" x2="91.201" y2="-3.35"/>
			
				<line style="fill:none;stroke:#FFFFFF;stroke-width:1.666;stroke-miterlimit:10;" x1="360.449" y1="63.697" x2="91.208" y2="68.292"/>
			
				<line style="fill:none;stroke:#FFFFFF;stroke-width:1.666;stroke-miterlimit:10;" x1="360.455" y1="134.843" x2="91.202" y2="138.144"/>
			
				<line style="fill:none;stroke:#FFFFFF;stroke-width:1.666;stroke-miterlimit:10;" x1="360.455" y1="203.244" x2="91.202" y2="199.799"/>
			
				<line style="fill:none;stroke:#FFFFFF;stroke-width:1.666;stroke-miterlimit:10;" x1="360.456" y1="265.906" x2="91.201" y2="265.906"/>
		</g>
	</g>
	<path d="M252.559,170.852c-2.535,32.534,18.541,69.383,39.032,82.59c9.009-4.504,16.73-11.583,19.948-18.017L252.559,170.852z"/>
	<path style="fill:#FF8300;" d="M263.535,144.791c0,0,17.231-19.417,19.453-34.323c3.471-25.005,31.755-33.8,49.822-23.026
		c33.148,25.865,53.752,101.903,1.306,139.587C285.766,262.834,228.066,180.681,263.535,144.791z"/>
</g>
<path style="fill:#3D6D3F;" d="M0.524,232.28c2.639-16.852,7.909-32.816,15.654-47.988c4.717-9.24,19.357-12.666,27.579-6.448
	c4.77,3.607,8.301,8.334,11.656,13.181c9.688,13.995,18.714,28.449,29.593,41.608c20.176,24.404,44.597,43.343,73.003,57.222
	c8.695,4.248,17.055,9.018,23.769,16.152c11.429,12.143,13.209,26.046,5.213,40.691c-6.898,12.636-17.299,21.861-28.921,30.031
	c-5.445,3.827-11.392,5.877-17.699,7.338c-2.788,0-5.577,0-8.365,0c-0.121-0.502-0.499-0.599-0.948-0.647
	c-10.968-1.173-21.317-4.547-31.343-8.977c-25.165-11.12-47.26-26.771-67.072-45.742C-5.053,288.833-0.043,235.901,0.524,232.28z"/>
<g>
</g>
<g>
</g>
<g>
</g>
<g>
</g>
<g>
</g>
</svg>
