<?xml version="1.0" encoding="iso-8859-1"?>
<!-- Generator: Adobe Illustrator 22.1.0, SVG Export Plug-In . SVG Version: 6.00 Build 0)  -->
<svg version="1.1" id="&#x421;&#x43B;&#x43E;&#x439;_1"
	 xmlns="http://www.w3.org/2000/svg" xmlns:xlink="http://www.w3.org/1999/xlink" x="0px" y="0px" viewBox="0 0 537.734 611.236"
	 style="enable-background:new 0 0 537.734 611.236;" xml:space="preserve">
<g>
	<g>
		<path style="fill:#3D6D3F;" d="M389.233,429.299c0,0,145.235-45.292,123.137-184.06c-22.098-138.768,60.298-140.272,7.187-176.094
			S357.695,18.991,267.059,85.453s-52.203,272.856-52.203,272.856S230.738,467.488,389.233,429.299z"/>
		<path style="fill:#FF8300;" d="M210.963,417.283c0,0-78.937,16.509-62.718,50.04s44.595,47.389,13.894,89.823
			c-30.701,42.435,70.395,76.285,153.423,36.124s149.733-105.922,133.522-200.536c-11.307-91.213,48.658-108.834,34.497-138.11
			c-8.527-20.538-52.414-34.462-93.446-24.493C278.779,254.669,294.126,380.997,210.963,417.283z"/>
		<path style="fill:#F3F3F3;" d="M326.305,251.315c28.834-97.228,113.419-178.484-11.837-190.064
			c-133.762,8.578-63.974,276.764-156.057,313.593c-50.344,20.135-73.74,23.196-86.37,27.354
			c-39.047,12.853-88.815,43.212,3.644,104.262c133.141,87.912,176.287,53.546,176.287,53.546s54.476-31.966,52.851-117.935
			C305.525,323.947,326.305,251.315,326.305,251.315z"/>
		<g>
			<defs>
				<path id="SVGID_1_" d="M326.305,250.71c28.834-97.228,113.419-178.484-11.837-190.064
					c-133.762,8.578-63.974,276.764-156.057,313.593c-50.344,20.135-73.74,23.196-86.37,27.354
					c-39.047,12.853-88.815,43.212,3.644,104.262c133.141,87.912,176.287,53.546,176.287,53.546s56.79-22.489,52.851-117.935
					C305.525,323.342,326.305,250.71,326.305,250.71z"/>
			</defs>
			<clipPath id="SVGID_2_">
				<use xlink:href="#SVGID_1_"  style="overflow:visible;"/>
			</clipPath>
			<g style="clip-path:url(#SVGID_2_);">
				<g>
					
						<line style="fill:none;stroke:#111D1E;stroke-width:1.7758;stroke-miterlimit:10;" x1="-61.233" y1="27.122" x2="-61.233" y2="608.4"/>
					
						<line style="fill:none;stroke:#111D1E;stroke-width:1.7758;stroke-miterlimit:10;" x1="83.509" y1="27.138" x2="79.43" y2="608.384"/>
					
						<line style="fill:none;stroke:#111D1E;stroke-width:1.7758;stroke-miterlimit:10;" x1="237.101" y1="27.125" x2="229.406" y2="608.397"/>
					
						<line style="fill:none;stroke:#111D1E;stroke-width:1.7758;stroke-miterlimit:10;" x1="384.769" y1="27.126" x2="377.331" y2="608.397"/>
					
						<line style="fill:none;stroke:#111D1E;stroke-width:1.7758;stroke-miterlimit:10;" x1="520.045" y1="27.122" x2="520.045" y2="608.4"/>
					
						<line style="fill:none;stroke:#111D1E;stroke-width:1.7758;stroke-miterlimit:10;" x1="520.045" y1="27.122" x2="-61.233" y2="27.122"/>
					
						<line style="fill:none;stroke:#111D1E;stroke-width:1.7758;stroke-miterlimit:10;" x1="520.029" y1="171.865" x2="-61.217" y2="181.785"/>
					
						<line style="fill:none;stroke:#111D1E;stroke-width:1.7758;stroke-miterlimit:10;" x1="520.042" y1="325.456" x2="-61.23" y2="332.583"/>
					
						<line style="fill:none;stroke:#111D1E;stroke-width:1.7758;stroke-miterlimit:10;" x1="520.042" y1="473.124" x2="-61.23" y2="465.686"/>
					
						<line style="fill:none;stroke:#111D1E;stroke-width:1.7758;stroke-miterlimit:10;" x1="520.045" y1="608.4" x2="-61.233" y2="608.4"/>
				</g>
			</g>
		</g>
		<path style="fill:#365EB0;" d="M242.827,305.746c35.45,107.964-144.703,87.794-181.682-26.495
			C19.882,196.785-3.614-57.641,372.248,11.899C473.687,38.939,174.7,95.362,242.827,305.746z"/>
		<path style="fill:#DCCDBD;" d="M107.342,465.522c-86.777-71.779-80.876,4.562-89.411-76.859s-53.375-136.264,42.328-182.556
			c76.536-40.877,127.595-86.783,159.338-21.161s114.494,89.22,114.494,89.22s78.255,10.316,17.492,115.881
			C334.635,417.133,194.119,537.3,107.342,465.522z"/>
		<g>
			<g>
				<path d="M289.444,521.453c0,0-20.025,41.302-59.473,44.297c-13.86,1.096-34.966-0.905-65.219-12.36
					c-0.819,1.227-1.688,2.478-2.612,3.756c-11.16,15.425-4.906,29.715,11.565,39.729
					C250.904,613.091,289.444,521.453,289.444,521.453z"/>
			</g>
		</g>
		<path d="M449.838,396.608c0,0-7.727-48.925,7.469-76.576c4.681-12.814,22.907-39.698,22.907-39.698s-26.546,47.826,2.695,84.391
			C473.077,378.383,455.888,392.206,449.838,396.608z"/>
		<path d="M349.692,67.306c29.079-14.773,47.688-26.04,84.91-27.004c0,0-35.477-4.553-49.897-0.155
			C375.495,48.216,364.046,57.49,349.692,67.306z"/>
	</g>
</g>
<g>
</g>
<g>
</g>
<g>
</g>
<g>
</g>
<g>
</g>
</svg>
