<?xml version="1.0" encoding="iso-8859-1"?>
<!-- Generator: Adobe Illustrator 22.1.0, SVG Export Plug-In . SVG Version: 6.00 Build 0)  -->
<svg version="1.1" id="&#x421;&#x43B;&#x43E;&#x439;_1"
	 xmlns="http://www.w3.org/2000/svg" xmlns:xlink="http://www.w3.org/1999/xlink" x="0px" y="0px" viewBox="0 0 351.154 384.759"
	 style="enable-background:new 0 0 351.154 384.759;" xml:space="preserve">
<g>
	<path style="fill:#F3F3F3;" d="M146.281,116.475c14.693-0.484,27.517,3.065,40.389,6.173c16.431,3.967,32.361,9.641,48.537,14.478
		c5.746,1.718,11.68,2.764,17.22,5.217c7.702,3.41,14.86,7.795,22.051,12.111c10.025,6.017,19.576,12.668,28.207,20.649
		c8.357,7.727,14.473,16.86,18.252,27.499c2.821,7.941,6.46,15.505,10.052,23.078c8.515,17.951,1.8,33.991-11.274,45.763
		c-11.008,9.911-24.055,15.14-38.367,17.763c-12.774,2.342-25.324,1.046-37.558-2.924c-20.217-6.561-37.573-18.492-55.085-30.052
		c-18.84-12.437-36.687-26.158-53.632-41.118c-11.059-9.764-18.529-21.499-23.062-35.394c-1.932-5.924-4.483-11.644-6.667-17.488
		c-4.658-12.466-0.3-22.94,7.048-32.935c6.847-9.314,16.573-12.045,27.3-12.79C142.294,116.322,144.917,116.475,146.281,116.475z"/>
	<g>
		<defs>
			<path id="SVGID_1_" d="M146.281,116.475c14.693-0.484,27.517,3.065,40.389,6.173c16.431,3.967,32.361,9.641,48.537,14.478
				c5.746,1.718,11.68,2.764,17.22,5.217c7.702,3.41,14.86,7.795,22.051,12.111c10.025,6.017,19.576,12.668,28.207,20.649
				c8.357,7.727,14.473,16.86,18.252,27.499c2.821,7.941,6.46,15.505,10.052,23.078c8.515,17.951,1.8,33.991-11.274,45.763
				c-11.008,9.911-24.055,15.14-38.367,17.763c-12.774,2.342-25.324,1.046-37.558-2.924c-20.217-6.561-37.573-18.492-55.085-30.052
				c-18.84-12.437-36.687-26.158-53.632-41.118c-11.059-9.764-18.529-21.499-23.062-35.394c-1.932-5.924-4.483-11.644-6.667-17.488
				c-4.658-12.466-0.3-22.94,7.048-32.935c6.847-9.314,16.573-12.045,27.3-12.79C142.294,116.322,144.917,116.475,146.281,116.475z"
				/>
		</defs>
		<clipPath id="SVGID_2_">
			<use xlink:href="#SVGID_1_"  style="overflow:visible;"/>
		</clipPath>
		<g style="clip-path:url(#SVGID_2_);">
			<rect x="106.235" y="328.228" width="228.078" height="1.015"/>
			<rect x="219.766" y="158.707" transform="matrix(0.0068 -1 1 0.0068 -53.9681 491.147)" width="1.015" height="228.071"/>
			<rect x="219.766" y="99.139" transform="matrix(0.0132 -0.9999 0.9999 0.0132 4.202 430.631)" width="1.015" height="228.095"/>
			
				<rect x="219.766" y="41.149" transform="matrix(0.0127 -0.9999 0.9999 0.0127 62.2945 373.4817)" width="1.015" height="228.094"/>
			<rect x="106.235" y="100.15" width="228.078" height="1.015"/>
			<rect x="105.727" y="100.658" width="1.015" height="228.077"/>
			<rect x="164.467" y="100.647" transform="matrix(0.9999 -0.0166 0.0166 0.9999 -3.5411 2.768)" width="1.015" height="228.099"/>
			<rect x="224.184" y="100.65" transform="matrix(0.9999 -0.0127 0.0127 0.9999 -2.7073 2.8696)" width="1.015" height="228.093"/>
			
				<rect x="165.728" y="214.189" transform="matrix(0.0128 -0.9999 0.9999 0.0128 61.5158 491.701)" width="228.094" height="1.015"/>
			<rect x="333.805" y="100.658" width="1.015" height="228.077"/>
		</g>
	</g>
	<path style="fill:#E1AB29;" d="M144.783,294.997c-0.152,18.081-3.307,35.666-9.1,52.758c-3.781,11.156-10.658,19.616-21.96,24.051
		c-8.125,3.189-15.27,8.807-23.873,10.678c-23.452,5.098-45.197,2.317-63.123-15.419c-7.746-7.664-12.256-17.385-16.34-27.257
		c-2.988-7.221-6.132-14.473-8.103-22c-4.286-16.371-3.214-31.993,9.049-45.186c3.646-3.923,6.57-8.392,9.827-12.61
		c9.934-12.862,23.445-19.589,39.265-21.386c23.433-2.661,45.048,3.372,64.952,15.569c12.918,7.916,19.065,19.946,19.399,35.012
		C144.82,291.136,144.783,293.067,144.783,294.997z"/>
	<path style="fill:#0F0E11;" d="M228.4,136.658c3.174,38.003,59.76,59.895,88.619,56.215c-0.064,3.025,3.982,6.703,3.918,9.728
		c-7.989,2.058-50.504,13.611-74.369-9.078c-19.539-17.953-22.858-36.812-23.156-55.005c-0.026-1.584-0.231-3.165-0.354-4.748
		C225.103,134.244,226.601,135.728,228.4,136.658z"/>
	<path style="fill:#365EB0;" d="M228.4,136.658c1.28-11.092,4.271-21.633,10.796-30.84c13.81-19.486,32.74-29.3,56.608-27.662
		c22.31,1.531,39.245,12.653,49.135,32.813c18.874,38.472-7.373,83.618-49.959,88.382c-10.609,1.187-20.818-0.362-30.652-4.489
		c-0.618-0.259-1.299-0.368-1.951-0.546C239.226,182.066,227.828,162.889,228.4,136.658z"/>
	<path style="fill:#3D6D3F;" d="M74.066,107.283c-9.841,0.408-19.562-0.203-28.626-4.605C22.88,91.72,14.606,63.892,27.073,41.151
		c4.745-8.655,11.486-15.466,19.456-21.106c10.251-7.254,21.4-12.888,33.132-17.259c15.801-5.886,28.453-2.449,39.444,10.354
		c8.3,9.668,12.523,20.946,12.927,33.652C132.033,63.58,117.807,107.283,74.066,107.283z"/>
	<path style="fill:#1C2829;" d="M340.577,301.994c0.48,0.116,0.959,0.232,1.439,0.348c0.734,1.506,1.469,3.013,2.203,4.519
		C342.154,305.875,341.441,303.877,340.577,301.994z"/>
	<path style="fill:#B79D87;" d="M22.004,294.973c-0.844-0.262-1.73-0.475-1.862-1.578c0.183-0.19,0.367-0.381,0.55-0.571
		c0.564,0.578,1.128,1.156,1.692,1.734C22.256,294.694,22.129,294.832,22.004,294.973z"/>
	<path style="fill:#0E0D0D;" d="M291.102,257.659c-0.73,0.154-1.297-0.032-1.603-0.765
		C290.033,257.149,290.568,257.404,291.102,257.659z"/>
	<path style="fill:#D4C3C3;" d="M16.058,290.676c-0.656-0.409-0.843-1.01-0.711-1.74C15.81,289.424,16.129,289.97,16.058,290.676z"
		/>
</g>
<g>
</g>
<g>
</g>
<g>
</g>
<g>
</g>
<g>
</g>
</svg>
