<?xml version="1.0" encoding="iso-8859-1"?>
<!-- Generator: Adobe Illustrator 22.1.0, SVG Export Plug-In . SVG Version: 6.00 Build 0)  -->
<svg version="1.1" id="&#x421;&#x43B;&#x43E;&#x439;_1"
	 xmlns="http://www.w3.org/2000/svg" xmlns:xlink="http://www.w3.org/1999/xlink" x="0px" y="0px" viewBox="0 0 369.033 381.04"
	 style="enable-background:new 0 0 369.033 381.04;" xml:space="preserve">
<g>
	<defs>
		<path id="SVGID_1_" d="M98.371,296.696c0,0,78.111,40.974,125.942-24.977s82.228-32.787,75.14-69.247
			s-45.797-86.92-110.203-96.831S55.985,196.102,55.985,196.102S17.736,247.373,98.371,296.696z"/>
	</defs>
	<use xlink:href="#SVGID_1_"  style="overflow:visible;fill:#FFFFFF;"/>
	<clipPath id="SVGID_2_">
		<use xlink:href="#SVGID_1_"  style="overflow:visible;"/>
	</clipPath>
	<g style="clip-path:url(#SVGID_2_);">
		<g>
			
				<line style="fill:#FFFFFF;stroke:#111D1E;stroke-width:1.7758;stroke-miterlimit:10;" x1="26.027" y1="55.428" x2="26.027" y2="358.799"/>
			
				<line style="fill:#FFFFFF;stroke:#111D1E;stroke-width:1.7758;stroke-miterlimit:10;" x1="101.569" y1="55.436" x2="99.44" y2="358.791"/>
			
				<line style="fill:#FFFFFF;stroke:#111D1E;stroke-width:1.7758;stroke-miterlimit:10;" x1="181.729" y1="55.429" x2="177.713" y2="358.798"/>
			
				<line style="fill:#FFFFFF;stroke:#111D1E;stroke-width:1.7758;stroke-miterlimit:10;" x1="258.798" y1="55.43" x2="254.916" y2="358.797"/>
			
				<line style="fill:#FFFFFF;stroke:#111D1E;stroke-width:1.7758;stroke-miterlimit:10;" x1="329.399" y1="55.428" x2="329.399" y2="358.799"/>
			
				<line style="fill:#FFFFFF;stroke:#111D1E;stroke-width:1.7758;stroke-miterlimit:10;" x1="329.399" y1="55.428" x2="26.027" y2="55.428"/>
			
				<line style="fill:#FFFFFF;stroke:#111D1E;stroke-width:1.7758;stroke-miterlimit:10;" x1="329.391" y1="130.969" x2="26.036" y2="136.147"/>
			
				<line style="fill:#FFFFFF;stroke:#111D1E;stroke-width:1.7758;stroke-miterlimit:10;" x1="329.397" y1="211.13" x2="26.029" y2="214.849"/>
			
				<line style="fill:#FFFFFF;stroke:#111D1E;stroke-width:1.7758;stroke-miterlimit:10;" x1="329.397" y1="288.198" x2="26.029" y2="284.316"/>
			
				<line style="fill:#FFFFFF;stroke:#111D1E;stroke-width:1.7758;stroke-miterlimit:10;" x1="329.399" y1="358.799" x2="26.027" y2="358.799"/>
		</g>
	</g>
</g>
<path style="fill:#652F6C;" d="M369.019,297.517c0.176,4.649-1.344,8.938-2.814,13.238c-13.395,23.264-48.075,60.713-74.488,68.773
	c-10.493,2.851-20.78,1.348-30.876-1.818c-4.651-1.459-9.117-3.546-12.493-7.372c-0.765-0.867-11.193-17.321-11.598-18.394
	c-1.843-4.887-2.997-9.989-3.732-15.09c-1.955-13.576-1.674-27.098,2.436-40.352c2.258-7.281,24.295-46.694,61.886-47.392
	c5.847,0.015,11.553,0.985,17.301,1.579c6.778,0.7,13.519,1.897,19.941,4.514c1.591,0.648,6.888,1.782,7.621,2.183
	C350.951,262.166,367.145,279.015,369.019,297.517z"/>
<path style="fill:#D3513E;" d="M33.941,212.843c-0.482-0.176-0.964-0.351-1.446-0.526c-15.126-7.514-24.587-19.973-30.787-35.278
	c-2.278-6.967-2.526-13.922,0.785-20.607c1.94-3.917,4.089-7.798,6.65-11.327c6.068-8.362,13.542-15.341,22.264-20.906
	c8.394-5.355,17.531-6.265,27.074-4.073c19.559,4.494,35.755,13.826,46.16,31.737c3.404,5.86,5.272,12.038,5.424,18.731
	c0.147,6.476-0.49,12.96-1.805,19.256c-2.374,11.37-9.651,18.227-20.953,20.913c-9.287,2.208-18.76,2.946-28.22,3.836
	c-7.942,0.747-15.803,0.246-23.602-1.382C34.971,213.093,34.456,212.968,33.941,212.843z"/>
<path style="fill:#3D6D3F;" d="M261.156,113.34c-28.653-31.133-42.315-86.597-4.335-98.963c30.569-11.325,51.911-25.817,60.39,0.226
	s38.084,39.035,38.084,39.035s28.606,7.82,0.619,44.027C348.228,106.886,289.809,144.473,261.156,113.34z"/>
<g>
</g>
<g>
</g>
<g>
</g>
<g>
</g>
<g>
</g>
</svg>
